<svg width="18" height="15" viewBox="0 0 18 15" fill="none" xmlns="http://www.w3.org/2000/svg">
<g clip-path="url(#clip0_2_24)">
<path d="M16.1093 3.77133C16.1202 3.93089 16.1202 4.09045 16.1202 4.25148C16.1202 9.15809 12.4331 14.8169 5.69104 14.8169V14.814C3.69943 14.8169 1.74918 14.239 0.0725708 13.1493C0.362168 13.1846 0.653216 13.2022 0.94499 13.2029C2.59547 13.2044 4.19878 12.6434 5.49725 11.6103C3.92878 11.5802 2.55338 10.5441 2.07289 9.03162C2.62233 9.13898 3.18846 9.11692 3.72773 8.96765C2.01773 8.61765 0.78749 7.09559 0.78749 5.32795C0.78749 5.31177 0.78749 5.29633 0.78749 5.28089C1.29701 5.56839 1.86749 5.72795 2.45104 5.74559C0.840474 4.65515 0.344022 2.48457 1.3166 0.787506C3.17757 3.10736 5.9233 4.51765 8.8708 4.66692C8.57539 3.37721 8.97894 2.02574 9.9312 1.11912C11.4075 -0.286758 13.7293 -0.2147 15.1171 1.28015C15.938 1.11618 16.7247 0.811036 17.4447 0.378683C17.1711 1.23824 16.5985 1.96839 15.8335 2.43236C16.56 2.34559 17.2698 2.14854 17.9383 1.8478C17.4462 2.59486 16.8264 3.24559 16.1093 3.77133Z" fill="#787878"/>
</g>
<defs>
<clipPath id="clip0_2_24">
<rect width="18" height="15" fill="white"/>
</clipPath>
</defs>
</svg>
