<svg width="61" height="60" viewBox="0 0 61 60" fill="none" xmlns="http://www.w3.org/2000/svg">
<g clip-path="url(#clip0_43_8)">
<path d="M22.145 33.7284C21.3338 33.2904 20.4496 32.9578 19.5735 32.6739C17.6592 32.0412 15.6313 31.6762 13.6114 31.7005C8.8661 31.7573 4.38033 34.2882 2.12528 38.5062C0.389371 41.7509 -0.0648842 45.6283 0.632722 49.2218C1.32222 52.7666 3.29336 56.1167 6.44881 57.9987C9.7016 59.9374 13.9684 60.1726 17.5051 58.8991C21.0012 57.6417 24.0106 55.2082 26.5739 52.58C29.7618 49.311 32.4306 45.5229 34.6532 41.54C37.0218 37.2895 38.92 32.7388 40.1773 28.034C41.3778 23.5401 42.0267 18.8272 41.6374 14.1792C41.3048 10.2775 40.2422 6.17299 37.9628 2.93642C36.7704 1.24108 34.8966 -0.292036 32.7632 0.721927C31.8141 1.16807 31.0841 1.97924 30.4757 2.80663C29.6807 3.88549 29.0886 5.10225 28.5694 6.34334C27.2229 9.56368 26.436 13.0274 25.9412 16.4667C25.3815 20.3279 25.1787 24.2621 25.4951 28.1557C25.7709 31.587 26.4198 35.1074 28.0178 38.1899C30.062 42.1159 33.9475 45.312 38.3359 46.1312C42.2214 46.8532 46.3989 45.8311 49.5625 43.4625C52.0609 41.5887 54.3079 38.5306 52.8883 35.3183C52.142 33.623 50.4305 32.6901 48.5972 32.9578C46.91 33.2093 45.4255 34.4747 45.02 36.1538C44.5657 38.0439 45.3606 40.307 46.9424 41.4508C48.3133 42.4404 50.1303 42.554 51.7527 42.2944C52.4016 42.189 53.0424 42.0105 53.6508 41.7428C54.0483 41.5725 54.5106 41.3372 54.7297 40.9479C54.4295 40.8667 54.1213 40.7856 53.8212 40.7045C53.8698 41.7266 54.3403 43.0082 55.4759 43.2029C56.0924 43.3084 56.352 42.3674 55.7355 42.262C55.2894 42.189 55.0704 41.8401 54.9325 41.4265C54.8757 41.248 54.8351 41.0614 54.8027 40.8749C54.8027 40.8749 54.8027 40.8667 54.7946 40.7856C54.7946 40.7613 54.7946 40.737 54.7864 40.7126C54.7621 40.2421 54.1294 40.0312 53.8779 40.4693C53.8374 40.5342 53.8374 40.5179 53.8942 40.4612C53.8698 40.4855 53.8455 40.5179 53.8212 40.5342C53.7806 40.5666 53.7238 40.6153 53.8049 40.5504C53.7563 40.5828 53.7076 40.6153 53.6589 40.6477C53.4642 40.7694 53.2047 40.8911 53.0586 40.9479C52.4584 41.175 51.8257 41.3372 51.193 41.4102C49.741 41.5725 48.1105 41.3778 47.0398 40.2908C45.8879 39.1146 45.4499 36.9731 46.3178 35.5292C47.056 34.3044 48.6215 33.6392 50.0087 33.9961C51.5661 34.4017 52.4097 36.0808 52.3692 37.5328C52.3367 38.7496 51.6716 39.9826 50.8523 40.956C48.6297 43.5923 45.1173 45.1659 41.7023 45.3931C39.6987 45.5229 37.6626 45.1903 35.8213 44.371C33.5825 43.3733 31.7005 41.7428 30.1999 39.8284C28.245 37.3382 27.3202 34.2233 26.8092 31.1408C26.217 27.5636 26.1846 23.889 26.4685 20.2792C26.7443 16.7507 27.3364 13.2302 28.3585 9.83948C28.7803 8.42805 29.2751 7.04094 29.916 5.71062C30.1918 5.14281 30.4838 4.5831 30.8164 4.05584C31.1246 3.56102 31.3923 3.18788 31.7573 2.7823C31.9114 2.60384 32.0818 2.4335 32.2603 2.27126C32.3414 2.19015 32.4306 2.11714 32.5198 2.04413C32.5847 1.99546 32.4712 2.07658 32.5766 2.00358C32.6253 1.97113 32.6739 1.93868 32.7145 1.90624C32.8848 1.79267 33.0552 1.69533 33.2418 1.6061C33.2823 1.58988 33.3878 1.54121 33.2823 1.58177C33.331 1.56554 33.3797 1.54121 33.4283 1.52499C33.5176 1.49254 33.6149 1.4682 33.7041 1.44387C33.988 1.37898 34.3531 1.37898 34.637 1.44387C35.0669 1.54932 35.2778 1.66288 35.6915 1.94679C35.7888 2.0198 35.7645 1.99546 35.9024 2.10903C36.0079 2.19826 36.1133 2.2956 36.2106 2.39294C36.4134 2.58762 36.6 2.79852 36.7785 3.01754C37.1841 3.51235 37.5734 4.13695 37.906 4.72911C38.8226 6.37578 39.4959 8.15225 39.9583 9.97738C41.0047 14.1143 40.9641 18.4947 40.3152 22.6965C39.6176 27.2634 38.2223 31.733 36.3648 35.9511C34.5396 40.1042 32.2602 44.0709 29.5185 47.6887C27.1742 50.7874 24.4487 53.7157 21.2202 55.9058C19.898 56.8062 18.4785 57.585 16.9535 58.096C15.2906 58.6557 13.579 58.8179 11.8269 58.6882C8.24961 58.4205 5.08605 56.5386 3.23658 53.4561C1.50067 50.5116 0.949079 46.8937 1.48445 43.5598C2.07661 39.8041 4.02341 36.4215 7.32488 34.4179C11.04 32.1629 15.5826 32.317 19.5817 33.696C20.3523 33.9637 20.9525 34.1908 21.6664 34.5721C22.2099 34.8641 22.6966 34.0286 22.145 33.7284Z" fill="black"/>
<path d="M60.6187 42.6108C60.7242 42.8622 60.7404 43.0894 60.6674 43.3003C60.5457 43.6491 60.3024 43.7626 59.9374 43.6328C59.7346 43.5598 59.5723 43.3976 59.4669 43.1461C59.3614 42.8947 59.3452 42.6675 59.4182 42.4566C59.5399 42.1078 59.7832 41.9943 60.1483 42.1241C60.3511 42.1971 60.5052 42.3593 60.6187 42.6108Z" fill="black"/>
</g>
<defs>
<clipPath id="clip0_43_8">
<rect width="61" height="59.9455" fill="white"/>
</clipPath>
</defs>
</svg>
